<?xml version="1.0" encoding="UTF-8" standalone="no"?>
<!-- Created with Inkscape (http://www.inkscape.org/) -->

<svg
   xmlns:svg="http://www.w3.org/2000/svg"
   xmlns="http://www.w3.org/2000/svg"
   version="1.1"
   width="73.207603mm"
   height="119.308mm"
   viewBox="0 0 42.6461 69.5014"
   id="svg2"
   xml:space="preserve"
   style="fill-rule:evenodd">
 <defs
   id="defs4">
  <style
   type="text/css"
   id="style6" />
 </defs>
 <g
   id="Layer_x0020_1">
  
  <g
   id="_189477040">
   <path
   d="m 23.971,38.9499 0.977147,6.38396 -5.58542,1.25671 -5.16646,2.1643 -3.21164,2.51347 0.977496,4.32865 19.3394,0.90765 2.51341,-2.16436 1.88509,-4.74756 -0.90765,-1.04728 -4.04939,-2.30399 -4.04944,-0.69817 c -0.219383,-2.39661 -0.47733,-3.98403 -0.889359,-6.38064 4.38743,0.549332 10.9702,3.64761 14.0151,4.49555 -0.82091,-3.92426 -1.67561,-9.21584 -4.67777,-15.5693 -3.00216,-6.35343 -6.21374,-10.8915 -11.5897,-15.4994 -5.37594,-4.60792 -15.5693,-8.09877 -16.6864,-8.44789 0,0 -3.70033,29.7422 -2.09457,38.3297 8.05275,-4.56219 14.8417,-4.15517 19.2001,-3.52143 z"
   id="_189081632"
   style="fill:#fefefe" />
   <path
   d="m 11.5123,69.0517 c 1.10577,-1.82689 3.09641,-1.68807 4.30704,-1.26888 1.21069,0.419077 2.30481,1.43141 3.30566,1.35014 1.00074,-0.08126 -1.36098,1.26952 -4.17848,-0.744831 -1.41987,-0.38395 -3.43423,0.663567 -3.43423,0.663567 z m 9.49552,-6.45398 c -2.47438,1.4525 -5.40087,-0.14843 -5.88094,-0.159732 -1.44003,-0.03402 -2.87266,0.611896 -3.07405,0.734462 -1.16362,0.708364 -2.77771,0.348648 -3.76138,0.06979 -1.21074,-0.343347 -2.24661,-1.48966 -3.42205,-1.64141 -1.1755,-0.151576 1.41923,-0.570711 4.35306,0.744831 2.71928,0.456243 3.25469,-2.1823 6.83467,-0.758579 0.238723,0.09484 3.16946,1.13956 4.95069,1.01064 z m 0.772094,2.83049 c 1.74557,0.828017 4.43578,-0.848115 4.70427,-1.01152 1.16367,-0.708306 2.77777,-0.348648 3.76138,-0.06979 1.21069,0.343289 2.30492,1.43147 3.30566,1.3502 1.00074,-0.08126 -1.24459,1.26958 -4.23667,-0.453679 -2.90051,-0.486593 -5.23799,1.84915 -7.53464,0.184781 z m -3.76289,-61.2932 c -0.04346,-0.112197 0.004,-2.55757 -0.08068,-2.58337 -0.818347,-0.249559 -2.50118,-2.04197 -3.79744,-0.736617 -0.602809,0.60712 -1.48803,1.0728 -2.0976,0.198528 C 11.431737,0.13928 5.8067627,0.507443 5.0634427,0.845314 c 2.17589,0.136547 5.0540903,-0.335075 5.8649803,0.610964 0.810891,0.946039 2.76915,1.79002 3.37731,1.11428 0.608168,-0.675742 3.35355,1.11707 3.71128,1.56446 z m -3.45025,34.633 c -3.51945,0.582595 -6.89263,1.5852 -9.5042,3.24263 -1.90035,-5.99739 2.08991,-37.6437 2.08991,-37.6437 3.2484,1.30884 6.98333,2.59648 11.066,4.94917 l 0.868737,0.539079 c 1.05934,0.612013 2.12148,1.28543 3.11185,2.05979 -0.03058,0.06687 3.42945,0.956408 7.15442,18.7841 0.182509,-0.676441 0.360066,-1.10664 0.418378,-1.52549 1.13892,-3.08867 -4.18768,-14.666 -7.04001,-16.9541 4.91102,3.54881 14.2144,14.1034 16.7276,30.9912 -5.96943,-1.78309 -11.2255,-4.21121 -13.6053,-4.09133 -0.19649,-0.961127 -0.369736,-1.77773 -0.608867,-2.67804 -1.40723,-1.84355 1.55065,-1.49316 1.55065,-1.49316 -0.108876,-1.40799 0.36059,-1.74942 -1.37036,-2.3464 -1.73095,-0.596983 -2.84843,-0.812405 -3.7862,-1.06657 0.182392,2.35053 0.779667,4.47429 1.41789,7.18774 -1.08031,-0.377658 -4.59126,-0.443485 -8.26031,-0.05715 1.57716,-4.07438 0.887378,-15.4977 0.03181,-15.9946 0.883417,5.43617 0.03262,13.5045 -0.261967,16.0969 z m 12.611,6.9757 c 0.02435,0.260452 -0.04759,0.826911 0.201558,0.909165 1.22863,0.232316 5.26095,1.02643 7.63117,2.64221 -0.734462,-1.2281 -6.09595,-2.97699 -7.83273,-3.55138 z m 0.344046,3.91791 c -0.01235,-0.162003 -0.309909,-0.386921 -0.126585,-0.76988 2.53141,0.325638 5.68661,1.80085 6.56408,2.50281 -3.02406,-1.15208 -6.5095,-1.73293 -6.43749,-1.73293 z m 1.01536,2.82763 c 1.00802,0 4.39209,0.93602 4.8241,1.36803 0.864018,0.720015 -4.8241,-1.36803 -4.8241,-1.36803 z m -5.04255,-0.01468 c 0,0 -5.32811,0.216005 -6.40813,0.93602 -1.08002,0.720015 6.40813,-0.93602 6.40813,-0.93602 z m -6.92927,-1.02759 c 1.37863,-0.444941 5.89777,-1.39238 7.39297,-1.75786 -0.09973,-0.44564 -5.05921,0.257598 -7.39297,1.75786 z m 7.36617,-4.77657 c -2.20898,-0.79691 -8.58041,2.23205 -7.7884,2.95206 -0.668228,0.546711 4.77307,-2.15405 7.69956,-2.27166 0.03734,-0.294705 0.08884,-0.680403 0.08884,-0.680403 z m -9.75749,2.89066 c 0.135964,-0.407892 1.17952,-0.618421 1.47731,0.925418 0.297793,1.54384 0.346784,4.41266 -0.144003,4.64235 -0.459738,0.215131 -1.82969,-4.07863 -1.33331,-5.56777 z m -1.66186,0.970739 c 0.09053,-0.135964 0.208315,-0.48502 0.578925,0.469641 0.37061,0.954661 0.957224,3.2664 0.597216,3.84241 -0.360008,0.576012 -1.72949,-3.48153 -1.17614,-4.31205 z m -0.902524,1.16659 c 0.137712,-0.395542 0.674053,2.31116 0.802386,2.59083 0.0801,0.174644 -0.20249,0.149013 -0.347425,-0.207325 -0.225791,-0.555216 -0.547934,-2.1163 -0.454961,-2.38351 z m 6.67721,-5.03213 c -0.05662,-0.651858 -0.115109,-0.666597 -0.379348,-0.705044 -0.264239,-0.03845 -0.399096,-0.430436 -0.399096,-0.767492 0,-0.337056 -0.282472,-0.431252 -0.308686,-0.716928 -0.05639,0.33292 -0.34457,0.308337 -0.270122,0.784211 0.07445,0.475874 -0.04433,0.737025 -0.416572,1.03482 -0.372241,0.297793 0.03437,1.10076 -0.573507,1.38055 -0.632809,0.111672 -0.675335,-0.4203 -1.27092,-0.271404 -0.595585,0.148896 -0.345852,0.607236 -1.09074,1.05393 -0.607236,0.223345 -0.576129,0.27286 -1.17171,0.421756 -0.595585,0.148896 -1.12074,1.21331 -1.80615,1.46456 -1.03103,0.575138 -1.0788,1.25869 -0.968234,1.90623 0.130954,0.766502 1.09756,2.26455 1.38434,3.04451 -1.16781,-0.288705 -2.06416,0.395251 -3.22387,-0.190781 -1.45681,-0.736151 -3.51712,0.925418 -4.88515,0.637411 -1.36803,-0.288006 -1.72804,-0.144003 -2.59205,-0.792017 -0.864018,-0.648014 0.144003,1.36803 1.87204,1.72804 1.72804,0.360008 3.96008,-0.576012 3.96008,-0.576012 1.56417,0.101361 2.44805,0.651276 2.78278,0.735045 -0.012991,0.127401 -1.24884,0.194334 -1.8552,0.854348 3.39211,-0.849338 7.46078,-0.531273 8.85485,0.0069 1.97637,1.76683 4.95541,1.00674 7.13794,0.203771 2.58122,-0.949651 3.89519,-0.02184 4.76678,0.980059 1.8305,2.1043 5.52006,-2.21737 7.03168,-1.10204 2.79594,2.06282 7.78013,0.07154 7.78013,0.07154 0,0 -1.2902,-1.67759 -3.52225,-0.669567 -2.23205,1.00802 -3.10958,-1.06138 -4.17609,-0.93602 -1.06651,0.125362 -0.04427,0.295113 -2.15352,0.196257 2.49879,-2.55058 2.82315,-2.6185 3.80956,-6.77636 -0.81258,-0.926175 -1.15692,-1.1949 -2.06055,-1.79777 0.01171,-0.832736 0.145459,-2.5546 -0.581371,-2.93814 -0.335192,-0.176858 -0.227481,-0.636363 -0.250957,-0.918718 -0.03134,-0.377134 -0.439116,-0.865766 -0.475991,-1.19834 -0.05517,0.331871 -0.373231,0.842814 -0.387795,1.19834 -0.01118,0.273617 0.05779,0.730559 -0.132352,0.919942 -0.443485,0.441912 -0.476049,1.09575 -0.48036,1.57116 -0.672946,-0.365891 -1.19181,-0.645567 -1.86505,-0.995497 -0.219034,-0.188392 0.04823,-1.92324 -0.598498,-2.03964 -0.571818,-0.102876 -0.51403,-0.927631 -0.559352,-1.17265 -0.06245,-0.337813 -0.344978,-0.470573 -0.402649,-0.831396 -0.01608,0.333793 -0.357503,0.610149 -0.320628,0.879397 0.0219,0.160372 0.04858,1.05579 -0.384591,1.17364 -0.580148,0.157926 -0.423621,1.22344 -0.428514,1.50568 -0.459155,-0.126585 -0.800813,-0.154722 -0.983904,-0.141848 -0.209771,-1.79136 -0.479486,-3.75107 -0.777045,-5.54348 5.58425,0.792483 7.82463,2.70105 14.1152,4.58002 -3.75521,-20.2296 -12.4648,-29.6821 -21.0725,-34.6274005 L 18.033429,4.153e-5 18.183665,8.8567515 c -4.23207,-2.40302 -8.01844,-3.66724 -11.5088,-5.08706 0,0 -3.78614,32.9940005 -2.16354,39.1240005 4.75146,-2.95812 9.6757,-4.13211 14.4336,-4.19636 1.41679,-0.07101 2.7205,0.136081 4.11981,0.265986 0.482923,1.86348 0.720772,3.61295 0.913359,5.98987 -0.271346,-0.003 -0.720132,0.07136 -0.788696,0.09245 -0.144003,-0.498185 -0.181402,-1.24098 -0.611023,-1.37479 -0.429621,-0.133809 -0.447679,-0.344046 -0.492942,-0.850096 -0.04526,-0.506049 -0.466262,-0.578517 -0.547817,-0.961011 -0.0061,0.386979 -0.375736,0.513331 -0.301288,1.03447 0.07445,0.521137 0.03117,0.896349 -0.356163,1.07344 -0.387329,0.177091 -0.124954,1.35673 -0.07794,1.73998 -0.242219,0.09647 -0.482224,0.187285 -0.8286,0.288763 l -0.379639,-7.24501 -1.02672,0.103342 -0.0674,7.96141 c -0.07107,-0.01637 -0.0727,-0.0098 -0.212975,-0.149887 m 6.18188,-11.2801 c -0.158275,0.141207 -0.665898,-0.212801 -0.537215,0.851843 2.01604,5.93465 2.44939,12.6361 1.87204,19.0817 0.689432,-0.324473 0.93602,-0.93701 0.93602,-0.93701 0.264006,-6.67296 -0.554458,-16.0778 -2.27084,-18.9965 z m 0.648014,-2.61571 1.36244,0.701432 0.04439,1.26783 -1.22403,0.06018 -0.1828,-2.02944 z"
   id="_189078224"
   style="fill:#1f1a17" />
  </g>
 </g>
</svg>